<svg width="39" height="36" viewBox="0 0 39 36" fill="none" xmlns="http://www.w3.org/2000/svg">
<path d="M11.1158 1.32328C11.1739 1.24346 11.3046 1.12008 11.4062 1.05477C11.5079 0.989454 11.7112 0.931396 11.8564 0.931396C12.0524 0.931396 12.1976 0.989454 12.3646 1.1346C12.4953 1.25071 12.7785 1.64986 12.9963 2.02723C13.2141 2.40461 13.6134 3.0505 13.8966 3.47141C14.1725 3.89233 14.7243 4.66159 15.1091 5.17685C15.5012 5.69211 16.1256 6.48315 16.5104 6.91858C16.8879 7.36127 17.5922 8.10876 18.0786 8.58773C18.841 9.34248 18.9572 9.48763 18.9572 9.69808C18.9572 9.82146 18.9281 9.99563 18.8846 10.0755C18.841 10.1553 18.7248 10.2641 18.6087 10.3222C18.4635 10.3948 18.0278 10.4311 16.9823 10.4528C16.0602 10.4673 15.5738 10.5036 15.6028 10.5472C15.6246 10.5907 15.7916 10.8157 15.9731 11.0552C16.1546 11.2947 16.7282 12.0276 17.2582 12.688C17.781 13.3484 18.4635 14.183 18.7757 14.5386C19.0806 14.9015 19.6977 15.5909 20.1406 16.0772C20.5908 16.5634 20.9901 16.9625 21.0264 16.9625C21.0627 16.9625 21.433 16.5489 21.8396 16.0409C22.2462 15.5329 22.8924 14.7128 23.2699 14.2121C23.6547 13.7113 23.9669 13.2831 23.9669 13.2541C23.9669 13.2178 23.3425 13.1888 21.1934 13.1598L21.0192 12.9638C20.903 12.8332 20.8449 12.6735 20.8449 12.5066C20.8449 12.2889 20.932 12.1583 21.4475 11.5922C21.7742 11.2366 22.297 10.6343 22.6092 10.2714C22.9287 9.90128 23.5022 9.17556 23.8943 8.6603C24.2864 8.14504 24.8817 7.2887 25.2157 6.77344C25.5497 6.25817 26.0216 5.50343 26.2612 5.11154C26.4936 4.71965 26.7767 4.33502 26.8929 4.26245C27.0091 4.17536 27.2124 4.12456 27.4011 4.12456C27.6625 4.13182 27.7424 4.1681 27.9602 4.40033C28.0981 4.55273 28.3087 4.85028 28.4249 5.068C28.541 5.28571 28.8532 5.80823 29.1074 6.22915C29.3687 6.65006 29.8915 7.41933 30.269 7.93459C30.6466 8.44985 31.3 9.29894 31.7284 9.8142C32.1495 10.3295 32.832 11.0915 33.2386 11.5051C33.7904 12.0494 33.9864 12.3034 33.9864 12.434C33.9864 12.5356 33.9501 12.688 33.9138 12.7824C33.8702 12.8695 33.7613 12.9928 33.6742 13.0509C33.5508 13.1307 33.195 13.167 30.7918 13.2323L31.7865 14.5386C32.331 15.2571 33.2168 16.3674 33.7613 17.0061C34.3059 17.6447 35.0827 18.5156 35.4893 18.951C35.9032 19.3792 36.2372 19.7783 36.2372 19.8364C36.2372 19.8944 36.1863 20.0541 36.1283 20.1847C36.0702 20.3081 35.9467 20.4678 35.8596 20.5258C35.7289 20.6129 35.3804 20.6419 32.6069 20.671L32.7303 20.8742C32.7957 20.983 33.1732 21.4983 33.5798 22.0135C33.9791 22.5288 34.7778 23.5303 35.3586 24.227C35.9467 24.9237 36.8325 25.9106 37.348 26.4187C38.1176 27.1952 38.2701 27.3839 38.2701 27.5653C38.2701 27.6814 38.2338 27.8483 38.1975 27.9281C38.1612 28.008 38.0087 28.1241 37.8708 28.1821C37.6747 28.2692 37.2972 28.291 34.7488 28.291L34.2841 27.4709C34.0227 27.0283 33.0425 25.3664 32.1059 23.7915C31.1693 22.2167 30.0149 20.2863 29.5357 19.5098C29.0638 18.7333 28.5628 17.9785 28.178 17.5866L22.0574 17.5649C16.0457 17.5504 15.9368 17.5504 15.7117 17.6955C15.5302 17.8044 15.189 18.3196 14.3177 19.7856C13.686 20.8524 12.5098 22.8481 11.6967 24.227C10.8908 25.6058 10.1865 26.7525 10.1429 26.7815C10.0994 26.8105 7.95751 26.8323 5.38003 26.8396C2.0402 26.8468 0.631664 26.8251 0.479193 26.767C0.355765 26.7162 0.203294 26.6073 0.130689 26.5275C0.058084 26.4404 0 26.2663 0 26.1501C0 25.9687 0.15247 25.78 0.936605 24.989C1.4521 24.4737 2.15637 23.719 2.51213 23.3198C2.86064 22.9207 3.46326 22.2022 3.84807 21.7232C4.23287 21.2515 4.95892 20.3008 6.3965 18.3849L4.6685 18.3487C3.10023 18.3124 2.93324 18.2979 2.74447 18.1672C2.63556 18.0874 2.51213 17.935 2.47583 17.8261C2.43227 17.71 2.42501 17.5649 2.45405 17.4996C2.47583 17.427 2.88242 16.977 3.33983 16.4981C3.8045 16.0191 4.47247 15.3006 4.82823 14.9015C5.184 14.5023 5.91731 13.617 6.46185 12.9348C7.00638 12.2526 7.65257 11.4253 7.90669 11.106C8.15354 10.7794 8.35684 10.4964 8.35684 10.4746C8.35684 10.4528 7.70339 10.4383 6.90474 10.4383C5.75758 10.4383 5.40907 10.4165 5.23482 10.3295C5.11865 10.2714 4.9807 10.148 4.92988 10.0609C4.88632 9.9666 4.85002 9.79243 4.85728 9.67631C4.86454 9.50214 5.04605 9.27717 5.80114 8.51516C6.31664 7.9999 6.96282 7.29595 7.23872 6.95487C7.52188 6.61378 7.99381 6.01143 8.29875 5.61228C8.59643 5.21314 9.08289 4.53096 9.38057 4.08827C9.67099 3.64559 10.1574 2.88358 10.4624 2.38283C10.7601 1.88209 11.0577 1.41037 11.1158 1.32328Z" fill="#5C795F"/>
<path d="M15.6028 22.9425C15.7843 22.5796 15.9804 22.2458 16.0457 22.2022C16.1111 22.1587 16.22 22.1224 16.2926 22.1224C16.3579 22.1224 16.4741 22.1805 16.5467 22.253C16.6193 22.3183 16.8081 22.6377 16.9678 22.957C17.1275 23.2763 17.8245 24.5173 18.5215 25.7147C19.2113 26.9121 20.2205 28.6611 20.7578 29.5973C21.2951 30.5335 22.2171 32.1373 22.8052 33.1533C23.4006 34.1693 23.88 35.0422 23.8655 35.0567C23.8582 35.0712 20.4964 35.0475 16.4087 35.0402C12.3211 35.0402 8.90033 35.0691 8.90033 35.0546C8.89307 35.0473 9.33701 34.3145 9.80894 33.4799C10.2227 32.7367 11.3965 30.6181 12.5459 28.5436L12.9673 27.783C14.2378 25.4897 15.4286 23.3126 15.6028 22.9425Z" fill="#5C795F"/>
<path d="M14.3179 19.7856C15.1891 18.3197 15.5304 17.8044 15.7119 17.6955H15.7046C15.937 17.5504 16.0459 17.5504 28.1636 17.5867L28.3669 17.7681C28.4686 17.8697 28.7082 18.1745 28.8897 18.4576C29.0712 18.7406 30.0005 20.2718 30.9589 21.8684C31.9173 23.465 33.1371 25.5261 33.6744 26.4405C34.2116 27.3549 34.7634 28.2693 34.8941 28.4725C35.0248 28.6684 35.8525 30.04 36.731 31.5205C37.6095 33.001 38.3574 34.2782 38.4082 34.3653C38.459 34.4742 38.4663 34.5903 38.4227 34.6919C38.3937 34.7862 38.3138 34.9023 38.263 34.9459C38.1831 35.0185 36.1429 35.0402 29.0494 35.0547C24.0397 35.0693 23.9235 35.0779 23.867 35.0525L22.8054 33.1534C22.2173 32.1374 21.2952 30.5335 20.7579 29.5973C20.2206 28.6612 19.2114 26.9122 18.5217 25.7147C17.8319 24.5173 17.1132 23.2473 16.9316 22.8917C16.7356 22.5143 16.5323 22.2095 16.4307 22.166C16.3145 22.1079 16.2274 22.1079 16.0894 22.1732C15.966 22.2385 15.8063 22.478 15.5957 22.9352C15.4215 23.3054 14.2598 25.4535 13.011 27.7105C11.7549 29.9675 10.3754 32.4639 9.93252 33.2622L9.93011 33.2666C9.48815 34.0632 9.08271 34.794 8.90152 35.0547L7.37682 35.0475C6.19336 35.033 5.81581 35.0112 5.68512 34.9241C5.59074 34.8661 5.52539 34.7499 5.52539 34.6411C5.52539 34.5322 6.09897 33.509 6.91215 32.1591C7.6745 30.8891 8.70549 29.1619 9.20647 28.3273C9.70744 27.4928 10.1431 26.7888 10.1721 26.767C10.2012 26.7453 10.8909 25.6059 11.6968 24.227C12.51 22.8482 13.6862 20.8524 14.3179 19.7856Z" fill="#B0BA96" fill-opacity="0.99"/>
</svg>
