<svg width="48" height="48" viewBox="0 0 48 48" fill="none" xmlns="http://www.w3.org/2000/svg">
<mask id="mask0_22556_178" style="mask-type:alpha" maskUnits="userSpaceOnUse" x="0" y="0" width="48" height="48">
<rect width="48" height="48" fill="#D9D9D9"/>
</mask>
<g mask="url(#mask0_22556_178)">
<path d="M18.4 32L24 27.8L29.5 32L27.4 25.2L33 20.8H26.2L24 14L21.8 20.8H15L20.5 25.2L18.4 32ZM8 40C6.9 40 5.95833 39.6083 5.175 38.825C4.39167 38.0417 4 37.1 4 36V29.25C4 28.8833 4.11667 28.5667 4.35 28.3C4.58333 28.0333 4.88333 27.8667 5.25 27.8C6.05 27.5333 6.70833 27.05 7.225 26.35C7.74167 25.65 8 24.8667 8 24C8 23.1333 7.74167 22.35 7.225 21.65C6.70833 20.95 6.05 20.4667 5.25 20.2C4.88333 20.1333 4.58333 19.9667 4.35 19.7C4.11667 19.4333 4 19.1167 4 18.75V12C4 10.9 4.39167 9.95833 5.175 9.175C5.95833 8.39167 6.9 8 8 8H40C41.1 8 42.0417 8.39167 42.825 9.175C43.6083 9.95833 44 10.9 44 12V18.75C44 19.1167 43.8833 19.4333 43.65 19.7C43.4167 19.9667 43.1167 20.1333 42.75 20.2C41.95 20.4667 41.2917 20.95 40.775 21.65C40.2583 22.35 40 23.1333 40 24C40 24.8667 40.2583 25.65 40.775 26.35C41.2917 27.05 41.95 27.5333 42.75 27.8C43.1167 27.8667 43.4167 28.0333 43.65 28.3C43.8833 28.5667 44 28.8833 44 29.25V36C44 37.1 43.6083 38.0417 42.825 38.825C42.0417 39.6083 41.1 40 40 40H8ZM8 36H40V30.9C38.7667 30.1667 37.7917 29.1917 37.075 27.975C36.3583 26.7583 36 25.4333 36 24C36 22.5667 36.3583 21.2417 37.075 20.025C37.7917 18.8083 38.7667 17.8333 40 17.1V12H8V17.1C9.23333 17.8333 10.2083 18.8083 10.925 20.025C11.6417 21.2417 12 22.5667 12 24C12 25.4333 11.6417 26.7583 10.925 27.975C10.2083 29.1917 9.23333 30.1667 8 30.9V36Z" fill="#5C795F"/>
</g>
</svg>
