<svg width="48" height="48" viewBox="0 0 48 48" fill="none" xmlns="http://www.w3.org/2000/svg">
<mask id="mask0_22556_118" style="mask-type:alpha" maskUnits="userSpaceOnUse" x="0" y="0" width="48" height="48">
<rect width="48" height="48" fill="#D9D9D9"/>
</mask>
<g mask="url(#mask0_22556_118)">
<path d="M28.6998 17.1C28.2998 16.1 27.7081 15.3166 26.9248 14.75C26.1415 14.1833 25.1998 13.9 24.0998 13.9C23.4998 13.9 22.9165 13.9833 22.3498 14.15C21.7831 14.3166 21.2665 14.6333 20.7998 15.1L17.8998 12.2C18.3665 11.7333 18.9998 11.3083 19.7998 10.925C20.5998 10.5416 21.3331 10.3 21.9998 10.2V5.99998H25.9998V10.1C27.4998 10.4 28.8165 11.0083 29.9498 11.925C31.0831 12.8416 31.9331 14.0333 32.4998 15.5L28.6998 17.1ZM39.5998 45.2L30.3998 36C29.8998 36.5 29.2165 36.9083 28.3498 37.225C27.4831 37.5416 26.6998 37.7333 25.9998 37.8V42H21.9998V37.7C20.1331 37.2333 18.5748 36.3833 17.3248 35.15C16.0748 33.9166 15.1665 32.3666 14.5998 30.5L18.5998 28.9C18.9998 30.3 19.6748 31.5 20.6248 32.5C21.5748 33.5 22.8331 34 24.3998 34C24.9998 34 25.5498 33.925 26.0498 33.775C26.5498 33.625 27.0331 33.4 27.4998 33.1L2.7998 8.39998L5.5998 5.59998L42.3998 42.4L39.5998 45.2Z" fill="#5C795F"/>
</g>
</svg>
