<svg width="48" height="46" viewBox="0 0 48 46" fill="none" xmlns="http://www.w3.org/2000/svg">
<path d="M29.6246 39.5263C30.1028 39.8024 30.2667 40.414 29.9906 40.8923L27.9906 44.3564C27.7144 44.8347 27.1028 44.9986 26.6246 44.7224L2.37584 30.7224C1.89755 30.4463 1.73367 29.8347 2.00981 29.3564L4.00981 25.8923C4.28596 25.414 4.89755 25.2501 5.37584 25.5263L29.6246 39.5263ZM33.5002 4.81348C34.4489 5.36124 35.0859 6.18505 35.3688 7.24099C35.6518 8.29692 35.5121 9.32883 34.9643 10.2776C34.6329 10.8515 34.1824 11.3187 33.6205 11.6657C33.3815 11.8132 33.1335 11.9343 32.8784 12.0311L33.8355 20.891L38.9835 21.4196C39.0574 21.2206 39.1503 21.0273 39.2585 20.8398C39.8063 19.891 40.6301 19.2541 41.686 18.9711L41.884 18.9231C42.8709 18.7074 43.8333 18.8622 44.7226 19.3757C45.6714 19.9234 46.3083 20.7472 46.5913 21.8032L46.6393 22.0012C46.855 22.988 46.7002 23.9504 46.1867 24.8398C45.639 25.7885 44.8152 26.4254 43.7592 26.7084C42.8333 26.9565 41.9261 26.8791 41.077 26.487L31.401 38.4241C31.0913 38.8058 30.5503 38.9061 30.1246 38.6603L5.87584 24.6603C5.45011 24.4145 5.26642 23.8958 5.4422 23.4368L10.9411 9.08808C10.1775 8.54879 9.65716 7.80197 9.40914 6.87635C9.1262 5.82042 9.2659 4.78851 9.81366 3.83976C10.3614 2.89101 11.1852 2.25407 12.2412 1.97113L12.4392 1.92308C13.426 1.70741 14.3884 1.86218 15.2778 2.37566C16.2265 2.92342 16.8635 3.74723 17.1464 4.80316L17.1944 5.00118C17.4101 5.98798 17.2553 6.9504 16.7419 7.83976C16.6336 8.02733 16.5118 8.20378 16.3764 8.36734L19.4082 12.5614L27.5596 8.96028C27.516 8.69116 27.4976 8.41592 27.5059 8.1354C27.5255 7.47531 27.7047 6.85153 28.0361 6.27758C28.5839 5.32883 29.4077 4.69189 30.4636 4.40895C31.5195 4.12602 32.5514 4.26572 33.5002 4.81348Z" fill="#5C795F" stroke="white" stroke-width="2" stroke-linejoin="round"/>
</svg>
